<?xml version="1.0" encoding="UTF-8"?><svg xmlns="http://www.w3.org/2000/svg" xmlns:xlink="http://www.w3.org/1999/xlink" fill-opacity="1" color-rendering="auto" color-interpolation="auto" text-rendering="auto" stroke="black" stroke-linecap="square" width="441" stroke-miterlimit="10" shape-rendering="auto" stroke-opacity="1" fill="black" stroke-dasharray="none" font-weight="normal" stroke-width="1" height="460" font-family="'Dialog'" font-style="normal" stroke-linejoin="miter" font-size="12px" stroke-dashoffset="0" image-rendering="auto">
  <!--Generated by ySVG 2.5-->
  <defs id="genericDefs"/>
  <g>
    <defs id="defs1">
      <clipPath clipPathUnits="userSpaceOnUse" id="clipPath1">
        <path d="M0 0 L441 0 L441 460 L0 460 L0 0 Z"/>
      </clipPath>
      <clipPath clipPathUnits="userSpaceOnUse" id="clipPath2">
        <path d="M232 40 L673 40 L673 500 L232 500 L232 40 Z"/>
      </clipPath>
    </defs>
    <g fill="white" text-rendering="geometricPrecision" shape-rendering="geometricPrecision" transform="translate(-232,-40)" stroke="white">
      <rect x="232" width="441" height="460" y="40" clip-path="url(#clipPath2)" stroke="none"/>
    </g>
    <g fill="rgb(255,204,0)" text-rendering="geometricPrecision" shape-rendering="geometricPrecision" transform="matrix(1,0,0,1,-232,-40)" stroke="rgb(255,204,0)">
      <rect x="247" width="61" height="30" y="55" clip-path="url(#clipPath2)" stroke="none"/>
    </g>
    <g text-rendering="geometricPrecision" stroke-miterlimit="1.45" shape-rendering="geometricPrecision" transform="matrix(1,0,0,1,-232,-40)" stroke-linecap="butt">
      <rect fill="none" x="247" width="61" height="30" y="55" clip-path="url(#clipPath2)"/>
      <text x="253.0547" xml:space="preserve" y="74.1543" clip-path="url(#clipPath2)" font-family="sans-serif" stroke="none">Browser</text>
    </g>
    <g fill="silver" text-rendering="geometricPrecision" shape-rendering="geometricPrecision" transform="matrix(1,0,0,1,-232,-40)" stroke="silver">
      <rect x="262.5" width="30" height="30" y="455" clip-path="url(#clipPath2)" stroke="none"/>
    </g>
    <g text-rendering="geometricPrecision" stroke-miterlimit="1.45" shape-rendering="geometricPrecision" transform="matrix(1,0,0,1,-232,-40)" stroke-linecap="butt">
      <rect fill="none" x="262.5" width="30" height="30" y="455" clip-path="url(#clipPath2)"/>
    </g>
    <g fill="rgb(255,204,0)" text-rendering="geometricPrecision" shape-rendering="geometricPrecision" transform="matrix(1,0,0,1,-232,-40)" stroke="rgb(255,204,0)">
      <rect x="412" width="61" height="30" y="55" clip-path="url(#clipPath2)" stroke="none"/>
    </g>
    <g text-rendering="geometricPrecision" stroke-miterlimit="1.45" shape-rendering="geometricPrecision" transform="matrix(1,0,0,1,-232,-40)" stroke-linecap="butt">
      <rect fill="none" x="412" width="61" height="30" y="55" clip-path="url(#clipPath2)"/>
      <text x="421.8311" xml:space="preserve" y="74.1543" clip-path="url(#clipPath2)" font-family="sans-serif" stroke="none">eHOKS</text>
    </g>
    <g fill="rgb(255,204,0)" text-rendering="geometricPrecision" shape-rendering="geometricPrecision" transform="matrix(1,0,0,1,-232,-40)" stroke="rgb(255,204,0)">
      <rect x="559" width="99" height="30" y="55" clip-path="url(#clipPath2)" stroke="none"/>
    </g>
    <g text-rendering="geometricPrecision" stroke-miterlimit="1.45" shape-rendering="geometricPrecision" transform="matrix(1,0,0,1,-232,-40)" stroke-linecap="butt">
      <rect fill="none" x="559" width="99" height="30" y="55" clip-path="url(#clipPath2)"/>
      <text x="572.0518" xml:space="preserve" y="74.1543" clip-path="url(#clipPath2)" font-family="sans-serif" stroke="none">Opintopolku</text>
    </g>
    <g fill="silver" text-rendering="geometricPrecision" shape-rendering="geometricPrecision" transform="matrix(1,0,0,1,-232,-40)" stroke="silver">
      <rect x="427.5" width="30" height="30" y="455" clip-path="url(#clipPath2)" stroke="none"/>
    </g>
    <g text-rendering="geometricPrecision" stroke-miterlimit="1.45" shape-rendering="geometricPrecision" transform="matrix(1,0,0,1,-232,-40)" stroke-linecap="butt">
      <rect fill="none" x="427.5" width="30" height="30" y="455" clip-path="url(#clipPath2)"/>
    </g>
    <g fill="silver" text-rendering="geometricPrecision" shape-rendering="geometricPrecision" transform="matrix(1,0,0,1,-232,-40)" stroke="silver">
      <rect x="593.5" width="30" height="30" y="455" clip-path="url(#clipPath2)" stroke="none"/>
    </g>
    <g text-rendering="geometricPrecision" stroke-miterlimit="1.45" shape-rendering="geometricPrecision" transform="matrix(1,0,0,1,-232,-40)" stroke-linecap="butt">
      <rect fill="none" x="593.5" width="30" height="30" y="455" clip-path="url(#clipPath2)"/>
    </g>
    <g fill="rgb(153,153,153)" text-rendering="geometricPrecision" shape-rendering="geometricPrecision" transform="matrix(1,0,0,1,-232,-40)" stroke="rgb(153,153,153)">
      <rect x="272.5" width="10" height="30" y="115" clip-path="url(#clipPath2)" stroke="none"/>
    </g>
    <g text-rendering="geometricPrecision" stroke-miterlimit="1.45" shape-rendering="geometricPrecision" transform="matrix(1,0,0,1,-232,-40)" stroke-linecap="butt">
      <rect fill="none" x="272.5" width="10" height="30" y="115" clip-path="url(#clipPath2)"/>
    </g>
    <g fill="rgb(153,153,153)" text-rendering="geometricPrecision" shape-rendering="geometricPrecision" transform="matrix(1,0,0,1,-232,-40)" stroke="rgb(153,153,153)">
      <rect x="437.5" width="10" height="30" y="115" clip-path="url(#clipPath2)" stroke="none"/>
    </g>
    <g text-rendering="geometricPrecision" stroke-miterlimit="1.45" shape-rendering="geometricPrecision" transform="matrix(1,0,0,1,-232,-40)" stroke-linecap="butt">
      <rect fill="none" x="437.5" width="10" height="30" y="115" clip-path="url(#clipPath2)"/>
    </g>
    <g fill="rgb(153,153,153)" text-rendering="geometricPrecision" shape-rendering="geometricPrecision" transform="matrix(1,0,0,1,-232,-40)" stroke="rgb(153,153,153)">
      <rect x="437.5" width="10" height="30" y="164.96" clip-path="url(#clipPath2)" stroke="none"/>
    </g>
    <g text-rendering="geometricPrecision" stroke-miterlimit="1.45" shape-rendering="geometricPrecision" transform="matrix(1,0,0,1,-232,-40)" stroke-linecap="butt">
      <rect fill="none" x="437.5" width="10" height="30" y="164.96" clip-path="url(#clipPath2)"/>
    </g>
    <g fill="rgb(153,153,153)" text-rendering="geometricPrecision" shape-rendering="geometricPrecision" transform="matrix(1,0,0,1,-232,-40)" stroke="rgb(153,153,153)">
      <rect x="272.5" width="10" height="30" y="165" clip-path="url(#clipPath2)" stroke="none"/>
    </g>
    <g text-rendering="geometricPrecision" stroke-miterlimit="1.45" shape-rendering="geometricPrecision" transform="matrix(1,0,0,1,-232,-40)" stroke-linecap="butt">
      <rect fill="none" x="272.5" width="10" height="30" y="165" clip-path="url(#clipPath2)"/>
    </g>
    <g fill="rgb(153,153,153)" text-rendering="geometricPrecision" shape-rendering="geometricPrecision" transform="matrix(1,0,0,1,-232,-40)" stroke="rgb(153,153,153)">
      <rect x="272.5" width="10" height="30" y="215" clip-path="url(#clipPath2)" stroke="none"/>
    </g>
    <g text-rendering="geometricPrecision" stroke-miterlimit="1.45" shape-rendering="geometricPrecision" transform="matrix(1,0,0,1,-232,-40)" stroke-linecap="butt">
      <rect fill="none" x="272.5" width="10" height="30" y="215" clip-path="url(#clipPath2)"/>
    </g>
    <g fill="rgb(153,153,153)" text-rendering="geometricPrecision" shape-rendering="geometricPrecision" transform="matrix(1,0,0,1,-232,-40)" stroke="rgb(153,153,153)">
      <rect x="603.5" width="10" height="30" y="215" clip-path="url(#clipPath2)" stroke="none"/>
    </g>
    <g text-rendering="geometricPrecision" stroke-miterlimit="1.45" shape-rendering="geometricPrecision" transform="matrix(1,0,0,1,-232,-40)" stroke-linecap="butt">
      <rect fill="none" x="603.5" width="10" height="30" y="215" clip-path="url(#clipPath2)"/>
    </g>
    <g fill="rgb(153,153,153)" text-rendering="geometricPrecision" shape-rendering="geometricPrecision" transform="matrix(1,0,0,1,-232,-40)" stroke="rgb(153,153,153)">
      <rect x="603.5" width="10" height="30" y="275" clip-path="url(#clipPath2)" stroke="none"/>
    </g>
    <g text-rendering="geometricPrecision" stroke-miterlimit="1.45" shape-rendering="geometricPrecision" transform="matrix(1,0,0,1,-232,-40)" stroke-linecap="butt">
      <rect fill="none" x="603.5" width="10" height="30" y="275" clip-path="url(#clipPath2)"/>
    </g>
    <g fill="rgb(153,153,153)" text-rendering="geometricPrecision" shape-rendering="geometricPrecision" transform="matrix(1,0,0,1,-232,-40)" stroke="rgb(153,153,153)">
      <rect x="272.5" width="10" height="30" y="275" clip-path="url(#clipPath2)" stroke="none"/>
    </g>
    <g text-rendering="geometricPrecision" stroke-miterlimit="1.45" shape-rendering="geometricPrecision" transform="matrix(1,0,0,1,-232,-40)" stroke-linecap="butt">
      <rect fill="none" x="272.5" width="10" height="30" y="275" clip-path="url(#clipPath2)"/>
    </g>
    <g fill="rgb(153,153,153)" text-rendering="geometricPrecision" shape-rendering="geometricPrecision" transform="matrix(1,0,0,1,-232,-40)" stroke="rgb(153,153,153)">
      <rect x="272.5" width="10" height="30" y="335" clip-path="url(#clipPath2)" stroke="none"/>
    </g>
    <g text-rendering="geometricPrecision" stroke-miterlimit="1.45" shape-rendering="geometricPrecision" transform="matrix(1,0,0,1,-232,-40)" stroke-linecap="butt">
      <rect fill="none" x="272.5" width="10" height="30" y="335" clip-path="url(#clipPath2)"/>
    </g>
    <g fill="rgb(153,153,153)" text-rendering="geometricPrecision" shape-rendering="geometricPrecision" transform="matrix(1,0,0,1,-232,-40)" stroke="rgb(153,153,153)">
      <rect x="437.5" width="10" height="30" y="335" clip-path="url(#clipPath2)" stroke="none"/>
    </g>
    <g text-rendering="geometricPrecision" stroke-miterlimit="1.45" shape-rendering="geometricPrecision" transform="matrix(1,0,0,1,-232,-40)" stroke-linecap="butt">
      <rect fill="none" x="437.5" width="10" height="30" y="335" clip-path="url(#clipPath2)"/>
    </g>
    <g fill="rgb(153,153,153)" text-rendering="geometricPrecision" shape-rendering="geometricPrecision" transform="matrix(1,0,0,1,-232,-40)" stroke="rgb(153,153,153)">
      <rect x="437.5" width="10" height="30" y="395" clip-path="url(#clipPath2)" stroke="none"/>
    </g>
    <g text-rendering="geometricPrecision" stroke-miterlimit="1.45" shape-rendering="geometricPrecision" transform="matrix(1,0,0,1,-232,-40)" stroke-linecap="butt">
      <rect fill="none" x="437.5" width="10" height="30" y="395" clip-path="url(#clipPath2)"/>
    </g>
    <g fill="rgb(153,153,153)" text-rendering="geometricPrecision" shape-rendering="geometricPrecision" transform="matrix(1,0,0,1,-232,-40)" stroke="rgb(153,153,153)">
      <rect x="272.5" width="10" height="30" y="395" clip-path="url(#clipPath2)" stroke="none"/>
    </g>
    <g text-rendering="geometricPrecision" stroke-miterlimit="1.45" shape-rendering="geometricPrecision" transform="matrix(1,0,0,1,-232,-40)" stroke-linecap="butt">
      <rect fill="none" x="272.5" width="10" height="30" y="395" clip-path="url(#clipPath2)"/>
      <path fill="none" stroke-dasharray="6,2" d="M277.5 455 L277.5 85" clip-path="url(#clipPath2)" stroke="silver"/>
      <path fill="none" stroke-dasharray="6,2" d="M442.5 85 L442.5 455" clip-path="url(#clipPath2)" stroke="silver"/>
      <path fill="none" stroke-dasharray="6,2" d="M608.5 455 L608.5 85" clip-path="url(#clipPath2)" stroke="silver"/>
      <path fill="none" d="M282.5 130 L429.5 130" clip-path="url(#clipPath2)"/>
      <path d="M437.5 130 L425.5 125 L428.5 130 L425.5 135 Z" clip-path="url(#clipPath2)" stroke="none"/>
      <text x="313.6792" xml:space="preserve" y="124.6343" clip-path="url(#clipPath2)" font-family="sans-serif" stroke="none">GET Session info</text>
      <path fill="none" d="M447.5 130 L474.53 130 L474.53 179.96 L455.5 179.96" clip-path="url(#clipPath2)"/>
      <path d="M447.5 179.96 L459.5 184.96 L456.5 179.96 L459.5 174.96 Z" clip-path="url(#clipPath2)" stroke="none"/>
      <path fill="none" d="M437.5 179.9612 L290.5 179.9968" clip-path="url(#clipPath2)"/>
      <path d="M282.5 179.9988 L294.5012 184.9959 L291.5 179.9966 L294.4988 174.9959 Z" clip-path="url(#clipPath2)" stroke="none"/>
      <text x="315.1922" xml:space="preserve" y="174.6144" clip-path="url(#clipPath2)" font-family="sans-serif" stroke="none">200 No session</text>
      <path fill="none" d="M282.5 230 L595.5 230" clip-path="url(#clipPath2)"/>
      <path d="M603.5 230 L591.5 225 L594.5 230 L591.5 235 Z" clip-path="url(#clipPath2)" stroke="none"/>
      <text x="386.5801" xml:space="preserve" y="222.3578" clip-path="url(#clipPath2)" font-family="sans-serif" stroke="none">GET Authentication</text>
      <path fill="none" d="M613.5 230 L639.01 230 L639.01 290 L621.5 290" clip-path="url(#clipPath2)"/>
      <path d="M613.5 290 L625.5 295 L622.5 290 L625.5 285 Z" clip-path="url(#clipPath2)" stroke="none"/>
      <text x="617.5978" xml:space="preserve" y="264.1543" clip-path="url(#clipPath2)" font-family="sans-serif" stroke="none">OK</text>
      <path fill="none" d="M603.5 290 L290.5 290" clip-path="url(#clipPath2)"/>
      <path d="M282.5 290 L294.5 295 L291.5 290 L294.5 285 Z" clip-path="url(#clipPath2)" stroke="none"/>
      <text x="397.8919" xml:space="preserve" y="283.9943" clip-path="url(#clipPath2)" font-family="sans-serif" stroke="none">POST User info</text>
      <path fill="none" d="M272.5 290 L256.7379 290 L256.7379 350 L264.5 350" clip-path="url(#clipPath2)"/>
      <path d="M272.5 350 L260.5 345 L263.5 350 L260.5 355 Z" clip-path="url(#clipPath2)" stroke="none"/>
      <path fill="none" d="M282.5 350 L429.5 350" clip-path="url(#clipPath2)"/>
      <path d="M437.5 350 L425.5 345 L428.5 350 L425.5 355 Z" clip-path="url(#clipPath2)" stroke="none"/>
      <text x="320.0053" xml:space="preserve" y="343.8343" clip-path="url(#clipPath2)" font-family="sans-serif" stroke="none">POST User info</text>
      <path fill="none" d="M447.5 350 L468.13 350 L468.13 410 L455.5 410" clip-path="url(#clipPath2)"/>
      <path d="M447.5 410 L459.5 415 L456.5 410 L459.5 405 Z" clip-path="url(#clipPath2)" stroke="none"/>
      <text x="423.9445" xml:space="preserve" y="384.1543" clip-path="url(#clipPath2)" font-family="sans-serif" stroke="none">Create session</text>
      <path fill="none" d="M437.5 410 L290.5 410" clip-path="url(#clipPath2)"/>
      <path d="M282.5 410 L294.5 415 L291.5 410 L294.5 405 Z" clip-path="url(#clipPath2)" stroke="none"/>
      <text x="294.041" xml:space="preserve" y="404.6343" clip-path="url(#clipPath2)" font-family="sans-serif" stroke="none">303 GET Frontend URL</text>
    </g>
  </g>
</svg>
